<svg xmlns="http://www.w3.org/2000/svg" preserveAspectRatio="xMidYMid" viewBox="50 0 200 200">
  <path d="M190.7 4.9c-9.6-8.6-21.3-5.2-32.8 5a81.4 81.4 0 0 0-5.1 5c-19.7 21-38 59.7-43.7 89.2a81.5 81.5 0 0 1 5.8 17.7l.8 3.5-.9-2.8a173.8 173.8 0 0 0-.8-2 172 172 0 0 0-6.4-12.1l-3.5 11c4.5 8.2 7.3 22.4 7.3 22.4l-1.4-4.1c-1-2.9-6-11.7-7.2-13.7-2 7.5-2.8 12.6-2.1 13.8 1.4 2.4 2.7 6.5 4 11a257.6 257.6 0 0 1 4.6 25c-.3 8.6-.1 17.6.5 25.7a91 91 0 0 0 4.7 24.8l1.5-.8a111 111 0 0 1-3.9-37c.9-22.5 6-49.5 15.6-77.7 16-42.5 38.4-76.6 58.8-93-18.6 17-43.8 71.4-51.4 91.6a365.7 365.7 0 0 0-18 64c6.2-19 26.4-27.2 26.4-27.2s9.8-12.2 21.4-29.6a210 210 0 0 0-22.1 6l-7.1 3s18.1-11 33.7-16C191 73.8 214.2 25.9 190.7 4.9" fill="currentColor"/>
</svg>
